<?xml version="1.0" encoding="UTF-8" standalone="no"?>
<!DOCTYPE svg PUBLIC "-//W3C//DTD SVG 1.1//EN" "http://www.w3.org/Graphics/SVG/1.1/DTD/svg11.dtd">
<svg xmlns="http://www.w3.org/2000/svg" version="1.1" viewBox="0.00 0.00 512.00 512.00">
<path fill="gold" d="
  M 512.00 177.06
  L 512.00 180.56
  C 509.49 241.02 485.24 311.24 438.73 352.33
  C 435.71 354.99 432.82 356.48 429.06 355.02
  C 424.21 353.14 422.62 347.85 425.06 343.27
  C 453.10 290.54 477.91 219.06 451.35 161.05
  A 0.33 0.33 0.0 0 0 450.72 161.13
  C 449.04 170.51 447.50 180.49 445.42 189.24
  C 417.00 308.33 334.71 401.96 224.77 453.99
  C 186.03 472.32 139.72 484.78 97.00 475.47
  C 36.04 462.18 1.43 409.05 0.00 348.93
  L 0.00 340.19
  Q 1.07 310.05 10.33 285.57
  C 23.20 251.51 41.09 215.47 65.17 185.18
  Q 79.32 167.37 97.89 155.80
  Q 101.70 153.43 104.03 153.14
  C 108.99 152.51 113.65 157.31 112.82 162.26
  Q 112.53 164.00 110.25 168.16
  C 85.66 212.90 66.12 263.95 67.27 314.99
  Q 67.87 341.53 80.03 365.31
  A 0.40 0.40 0.0 0 0 80.79 365.12
  C 80.63 344.56 83.81 318.49 97.35 302.17
  C 103.04 295.32 112.49 297.00 112.86 306.66
  C 114.02 336.71 128.71 355.58 160.01 355.17
  C 186.16 354.82 210.37 343.66 231.51 329.04
  C 296.18 284.30 345.53 213.35 352.01 134.20
  C 354.54 103.35 335.87 90.15 307.30 89.89
  C 285.36 89.70 262.36 97.79 243.95 109.46
  C 242.02 110.68 237.43 112.60 235.15 112.57
  C 226.68 112.47 223.44 102.13 230.36 97.09
  C 292.12 52.09 407.04 -4.13 473.46 67.68
  Q 496.78 92.90 505.70 126.78
  C 510.52 145.11 511.19 159.84 512.00 177.06
  Z"
/>
<path fill="gold" d="
  M 188.72 268.57
  A 0.20 0.20 0.0 0 0 188.60 268.22
  Q 158.82 266.00 157.45 235.99
  C 156.06 205.49 181.25 173.19 201.78 153.30
  Q 225.53 130.29 256.56 120.38
  Q 268.16 116.68 276.11 116.56
  C 304.42 116.14 315.75 141.38 315.87 166.01
  C 315.94 181.57 312.06 197.31 303.03 210.05
  C 299.52 215.01 291.80 213.80 289.30 208.52
  Q 288.40 206.63 288.66 202.84
  C 289.35 192.45 289.09 181.39 284.64 172.05
  C 276.48 154.92 252.96 169.72 242.51 175.67
  A 0.33 0.32 36.0 0 0 242.61 176.27
  Q 265.36 181.19 269.41 201.36
  C 271.88 213.66 268.01 226.22 263.23 238.27
  C 248.27 275.98 214.92 319.74 171.95 326.71
  C 149.45 330.36 131.41 313.27 126.48 292.49
  C 122.29 274.78 125.48 255.97 132.33 239.42
  Q 134.21 234.87 136.19 233.29
  C 140.17 230.11 147.05 232.31 148.64 237.39
  C 149.35 239.66 148.88 242.44 148.64 244.92
  C 147.49 256.51 149.59 274.25 164.16 276.76
  C 172.76 278.25 182.14 274.46 188.72 268.57
  Z"
/>
</svg>
